HIERARCHY
ROOT Hips
{
    OFFSET   0.000000   0.000000   0.000000
    CHANNELS 6 Xposition Yposition Zposition Zrotation Xrotation Yrotation
    JOINT Chest
    {
        OFFSET   0.000000   8.007230   0.000000
        CHANNELS 3 Zrotation Xrotation Yrotation
        JOINT Chest2
        {
            OFFSET   0.000000  22.077100   0.000000
            CHANNELS 3 Zrotation Xrotation Yrotation
            JOINT Neck
            {
                OFFSET   0.000000  23.254800  -0.000021
                CHANNELS 3 Zrotation Xrotation Yrotation
                JOINT Head
                {
                    OFFSET   0.000000  14.370000   1.956610
                    CHANNELS 3 Zrotation Xrotation Yrotation
                    End Site
                    {
                        OFFSET   0.000000  19.566000   0.000000
                    }
                }
            }
            JOINT LeftCollar
            {
                OFFSET   3.911900  19.017000  -0.467063
                CHANNELS 3 Zrotation Xrotation Yrotation
                JOINT LeftShoulder
                {
                    OFFSET  10.383700   0.000000   0.000000
                    CHANNELS 3 Zrotation Xrotation Yrotation
                    JOINT LeftElbow
                    {
                        OFFSET  26.662100   0.001529   0.000325
                        CHANNELS 3 Zrotation Xrotation Yrotation
                        JOINT LeftWrist
                        {
                            OFFSET  28.869000  -0.000011  -0.000096
                            CHANNELS 3 Zrotation Xrotation Yrotation
                            JOINT LeftFinger0
                            {
                                OFFSET   2.044650  -2.323460   3.252850
                                CHANNELS 3 Zrotation Xrotation Yrotation
                                JOINT LeftFinger01
                                {
                                    OFFSET   3.088130   0.000000   0.000000
                                    CHANNELS 3 Zrotation Xrotation Yrotation
                                    JOINT LeftFinger02
                                    {
                                        OFFSET   2.639460   0.000000   0.000000
                                        CHANNELS 3 Zrotation Xrotation Yrotation
                                        End Site
                                        {
                                            OFFSET   2.582190   0.000000   0.000000
                                        }
                                    }
                                }
                            }
                            JOINT LeftFinger1
                            {
                                OFFSET   8.364480   0.000000   3.252850
                                CHANNELS 3 Zrotation Xrotation Yrotation
                                JOINT LeftFinger11
                                {
                                    OFFSET   4.646930   0.000000   0.000000
                                    CHANNELS 3 Zrotation Xrotation Yrotation
                                    JOINT LeftFinger12
                                    {
                                        OFFSET   2.323460   0.000000   0.000000
                                        CHANNELS 3 Zrotation Xrotation Yrotation
                                        End Site
                                        {
                                            OFFSET   2.273050   0.000000   0.000000
                                        }
                                    }
                                }
                            }
                            JOINT LeftFinger2
                            {
                                OFFSET   8.364480   0.000016   1.078090
                                CHANNELS 3 Zrotation Xrotation Yrotation
                                JOINT LeftFinger21
                                {
                                    OFFSET   5.111620   0.000000   0.000000
                                    CHANNELS 3 Zrotation Xrotation Yrotation
                                    JOINT LeftFinger22
                                    {
                                        OFFSET   2.788160   0.000017   0.000000
                                        CHANNELS 3 Zrotation Xrotation Yrotation
                                        End Site
                                        {
                                            OFFSET   2.727660   0.000000   0.000000
                                        }
                                    }
                                }
                            }
                            JOINT LeftFinger3
                            {
                                OFFSET   7.899780   0.000015  -1.078090
                                CHANNELS 3 Zrotation Xrotation Yrotation
                                JOINT LeftFinger31
                                {
                                    OFFSET   4.646920   0.000000   0.000000
                                    CHANNELS 3 Zrotation Xrotation Yrotation
                                    JOINT LeftFinger32
                                    {
                                        OFFSET   2.323470   0.000000   0.000000
                                        CHANNELS 3 Zrotation Xrotation Yrotation
                                        End Site
                                        {
                                            OFFSET   2.273050   0.000000   0.000000
                                        }
                                    }
                                }
                            }
                            JOINT LeftFinger4
                            {
                                OFFSET   7.435090   0.000000  -3.252850
                                CHANNELS 3 Zrotation Xrotation Yrotation
                                JOINT LeftFinger41
                                {
                                    OFFSET   3.717550   0.000000   0.000000
                                    CHANNELS 3 Zrotation Xrotation Yrotation
                                    JOINT LeftFinger42
                                    {
                                        OFFSET   1.858760   0.000000   0.000000
                                        CHANNELS 3 Zrotation Xrotation Yrotation
                                        End Site
                                        {
                                            OFFSET   1.818440   0.000000   0.000000
                                        }
                                    }
                                }
                            }
                        }
                    }
                }
            }
            JOINT RightCollar
            {
                OFFSET  -3.911900  19.017000  -0.467062
                CHANNELS 3 Zrotation Xrotation Yrotation
                JOINT RightShoulder
                {
                    OFFSET -10.383700   0.000015   0.000000
                    CHANNELS 3 Zrotation Xrotation Yrotation
                    JOINT RightElbow
                    {
                        OFFSET -26.662100   0.001341   0.000385
                        CHANNELS 3 Zrotation Xrotation Yrotation
                        JOINT RightWrist
                        {
                            OFFSET -28.869000   0.000025  -0.000080
                            CHANNELS 3 Zrotation Xrotation Yrotation
                            JOINT RightFinger0
                            {
                                OFFSET  -2.044650  -2.323490   3.252850
                                CHANNELS 3 Zrotation Xrotation Yrotation
                                JOINT RightFinger01
                                {
                                    OFFSET  -3.088130   0.000000   0.000000
                                    CHANNELS 3 Zrotation Xrotation Yrotation
                                    JOINT RightFinger02
                                    {
                                        OFFSET  -2.639460   0.000000   0.000000
                                        CHANNELS 3 Zrotation Xrotation Yrotation
                                        End Site
                                        {
                                            OFFSET  -2.582190   0.000000   0.000000
                                        }
                                    }
                                }
                            }
                            JOINT RightFinger1
                            {
                                OFFSET  -8.364480   0.000000   3.252850
                                CHANNELS 3 Zrotation Xrotation Yrotation
                                JOINT RightFinger11
                                {
                                    OFFSET  -4.646930   0.000000   0.000000
                                    CHANNELS 3 Zrotation Xrotation Yrotation
                                    JOINT RightFinger12
                                    {
                                        OFFSET  -2.323470   0.000000   0.000000
                                        CHANNELS 3 Zrotation Xrotation Yrotation
                                        End Site
                                        {
                                            OFFSET  -2.273050   0.000000   0.000000
                                        }
                                    }
                                }
                            }
                            JOINT RightFinger2
                            {
                                OFFSET  -8.364480   0.000000   1.078090
                                CHANNELS 3 Zrotation Xrotation Yrotation
                                JOINT RightFinger21
                                {
                                    OFFSET  -5.111610   0.000000   0.000000
                                    CHANNELS 3 Zrotation Xrotation Yrotation
                                    JOINT RightFinger22
                                    {
                                        OFFSET  -2.788160   0.000000   0.000000
                                        CHANNELS 3 Zrotation Xrotation Yrotation
                                        End Site
                                        {
                                            OFFSET  -2.727660   0.000000   0.000000
                                        }
                                    }
                                }
                            }
                            JOINT RightFinger3
                            {
                                OFFSET  -7.899780   0.000000  -1.078090
                                CHANNELS 3 Zrotation Xrotation Yrotation
                                JOINT RightFinger31
                                {
                                    OFFSET  -4.646920   0.000000   0.000000
                                    CHANNELS 3 Zrotation Xrotation Yrotation
                                    JOINT RightFinger32
                                    {
                                        OFFSET  -2.323470   0.000000   0.000000
                                        CHANNELS 3 Zrotation Xrotation Yrotation
                                        End Site
                                        {
                                            OFFSET  -2.273050   0.000000   0.000000
                                        }
                                    }
                                }
                            }
                            JOINT RightFinger4
                            {
                                OFFSET  -7.435090   0.000000  -3.252850
                                CHANNELS 3 Zrotation Xrotation Yrotation
                                JOINT RightFinger41
                                {
                                    OFFSET  -3.717550   0.000000   0.000000
                                    CHANNELS 3 Zrotation Xrotation Yrotation
                                    JOINT RightFinger42
                                    {
                                        OFFSET  -1.858770   0.000000   0.000000
                                        CHANNELS 3 Zrotation Xrotation Yrotation
                                        End Site
                                        {
                                            OFFSET  -1.818440   0.000000   0.000000
                                        }
                                    }
                                }
                            }
                        }
                    }
                }
            }
        }
    }
    JOINT LeftHip
    {
        OFFSET   9.783010   0.000000   0.000000
        CHANNELS 3 Zrotation Xrotation Yrotation
        JOINT LeftKnee
        {
            OFFSET   0.000070 -41.789100   0.000028
            CHANNELS 3 Zrotation Xrotation Yrotation
            JOINT LeftAnkle
            {
                OFFSET   0.000087 -41.133200  -0.000100
                CHANNELS 3 Zrotation Xrotation Yrotation
                JOINT LeftToe
                {
                    OFFSET   0.000000  -6.358960  14.674500
                    CHANNELS 3 Zrotation Xrotation Yrotation
                    End Site
                    {
                        OFFSET   0.000000   0.000000   3.913200
                    }
                }
            }
        }
    }
    JOINT RightHip
    {
        OFFSET  -9.783020   0.000000   0.000000
        CHANNELS 3 Zrotation Xrotation Yrotation
        JOINT RightKnee
        {
            OFFSET   0.000044 -41.789100  -0.000870
            CHANNELS 3 Zrotation Xrotation Yrotation
            JOINT RightAnkle
            {
                OFFSET  -0.000090 -41.133200  -0.000245
                CHANNELS 3 Zrotation Xrotation Yrotation
                JOINT RightToe
                {
                    OFFSET   0.000000  -6.358960  14.674500
                    CHANNELS 3 Zrotation Xrotation Yrotation
                    End Site
                    {
                        OFFSET   0.000000   0.000000   3.913200
                    }
                }
            }
        }
    }
}
MOTION
Frames: 6
Frame Time:   0.016667
 -0.312086  89.934800   0.071640   0.153170 -12.874200   3.823350  -2.763770  12.508300   3.503220  -6.567420  24.798800   7.927530  -0.943628  -6.970760  -0.121981  -1.610170 -14.122700 -11.849800  -7.129550  -9.435680   1.522720 -60.356300  29.166700  -4.541910  -6.277590 -16.119300 -17.653000  17.735000   2.637150   8.505420  39.002800  30.314600 -71.006100 -24.516200  -0.000339  -0.000040  -7.258050  -0.004097   0.003284 -36.229800  11.232200 -14.889700 -30.847000  -0.002016   0.005380 -21.592900  -0.004242   0.002126 -32.400100   0.636513  -1.002950 -48.608500  -0.007484   0.004432 -32.373300  -0.009430   0.006663 -28.731700   0.571211  -1.041520 -40.072500  -0.002354   0.001510 -26.688300  -0.002111   0.003044 -35.836900   0.042877  -0.055077 -53.755400  -0.003171   0.000287 -35.801100  -0.001914   0.001726  11.529600  -5.651090  10.078800  38.452200  43.880400  38.519300  -5.921540  -5.406780 106.576000   8.896260 -36.631800  45.621900 -40.409900  44.643900  83.803600  35.580400  -0.002973  -0.001587  12.790200  -0.005085  -0.003825  31.230400   7.677400  12.428000  26.237800   0.003747  -0.000257  18.366400   0.001217  -0.000422  27.913900   2.530910   4.764340  32.128200   0.002634  -0.001873  21.397400  -0.001240   0.004104  27.494500   1.891650   3.628810  29.471200   0.001602   0.000483  19.627800   0.000000  -0.000421  27.690500   1.601640   3.046750  41.599800   0.007970   0.001073  27.705400  -0.000106  -0.000000   1.815630  14.064700   2.179940   0.604456   2.250630   9.923700  -6.698680  -4.945470   2.277260  -0.000000   0.000000   0.000000   1.974400  14.078600 -12.052700   0.182197   4.178390 -11.207400  -8.254870  -1.778090  -0.627737   0.000000   0.000000  -0.000000
 -0.265359  89.937200   0.073401   0.140825 -12.873800   3.802500  -2.781560  12.497900   3.525330  -6.608250  24.775300   7.976390  -0.943528  -6.978030  -0.122444  -1.615380 -14.137900 -11.910000  -7.131870  -9.435230   1.483450 -60.392300  29.080200  -4.485830  -6.272710 -16.114500 -17.639400  17.717100   2.636540   8.507130  39.005100  30.306100 -71.034300 -24.481500  -0.000386  -0.000097  -7.240720  -0.004099   0.003358 -36.198100  11.231500 -14.903100 -30.822300  -0.002234   0.005413 -21.575600  -0.004327   0.002190 -32.406600   0.645780  -1.017190 -48.618500  -0.007558   0.004510 -32.379900  -0.009541   0.006704 -28.731500   0.579377  -1.056400 -40.076500  -0.002358   0.001530 -26.691000  -0.002173   0.003029 -35.842000   0.043215  -0.053367 -53.763000  -0.003149   0.000358 -35.806200  -0.001947   0.001757  11.550500  -5.705380  10.068400  38.420600  43.962200  38.448900  -5.910010  -5.497790 106.576000   8.818790 -36.433000  45.674700 -40.556600  44.777400  83.992000  35.428500  -0.002965  -0.001588  12.714200  -0.005115  -0.003827  31.280500   7.732950  12.488400  26.286600   0.003817  -0.000244  18.400600   0.001259  -0.000458  27.930800   2.583890   4.860370  32.266700   0.002678  -0.001891  21.489700  -0.001299   0.003995  27.494300   1.980280   3.798750  29.500200   0.001594   0.000480  19.647100   0.000000  -0.000390  27.654800   1.607130   3.063600  41.546700   0.008208   0.001145  27.670100  -0.000113   0.000000   1.792000  14.072900   2.179900   0.599867   2.237890   9.926740  -6.664180  -4.951350   2.302800   0.000000   0.000000   0.000000   1.949770  14.072600 -12.050300   0.179321   4.207100 -11.212100  -8.230210  -1.784460  -0.601139   0.000000   0.000000   0.000000
 -0.220149  89.938100   0.075172   0.126070 -12.879000   3.778640  -2.795430  12.492100   3.548780  -6.641790  24.761200   8.027590  -0.952976  -6.993030  -0.122936  -1.637750 -14.168200 -11.965000  -7.155210  -9.448230   1.419490 -60.422600  28.989200  -4.403170  -6.277780 -16.088400 -17.636700  17.705200   2.663510   8.489870  39.007700  30.259000 -70.977300 -24.447500  -0.000438  -0.000119  -7.223760  -0.004098   0.003416 -36.178400  11.231100 -14.911400 -30.806900  -0.002448   0.005447 -21.564800  -0.004416   0.002250 -32.388300   0.650170  -1.024870 -48.591200  -0.007632   0.004588 -32.361800  -0.009650   0.006746 -28.731400   0.583594  -1.064180 -40.043600  -0.002357   0.001552 -26.669100  -0.002234   0.003014 -35.829200   0.044423  -0.057694 -53.743900  -0.003124   0.000432 -35.793400  -0.001980   0.001790  11.541600  -5.761820  10.041200  38.414000  44.054000  38.390600  -5.936390  -5.611420 106.592000   8.864760 -36.393100  45.760900 -40.509100  44.629100  83.866100  35.283600  -0.002957  -0.001585  12.641800  -0.005141  -0.003827  31.203800   7.691930  12.460500  26.218200   0.003878  -0.000249  18.352700   0.001301  -0.000498  27.922100   2.568480   4.833400  32.198200   0.002720  -0.001905  21.444100  -0.001348   0.003898  27.466000   1.934230   3.715250  29.362700   0.001569   0.000455  19.555600   0.000000  -0.000345  27.584100   1.616880   3.091680  41.441600   0.008432   0.001225  27.600100  -0.000110   0.000030   1.770560  14.080200   2.179900   0.596158   2.229490   9.935330  -6.629480  -4.956840   2.323990   0.000000   0.000000   0.000000   1.936320  14.080000 -12.042700   0.170750   4.222770 -11.220600  -8.206730  -1.789440  -0.575889  -0.000000   0.000000   0.000000
 -0.176612  89.938500   0.077153   0.110100 -12.886300   3.753810  -2.808620  12.485600   3.570140  -6.673300  24.745700   8.074190  -0.972276  -7.003580  -0.123467  -1.664540 -14.189600 -11.993700  -7.175050  -9.461140   1.377000 -60.431400  28.905000  -4.349780  -6.290290 -16.069500 -17.635000  17.698700   2.690480   8.472620  39.015400  30.207600 -70.898800 -24.427300  -0.000491  -0.000137  -7.213660  -0.004097   0.003467 -36.169000  11.230900 -14.915400 -30.799600  -0.002661   0.005483 -21.559700  -0.004505   0.002311 -32.370100   0.651829  -1.028170 -48.563900  -0.007707   0.004664 -32.343600  -0.009758   0.006787 -28.731400   0.585335  -1.067420 -40.002500  -0.002355   0.001576 -26.641700  -0.002296   0.002998 -35.810100   0.046282  -0.064144 -53.715300  -0.003096   0.000510 -35.774400  -0.002012   0.001822  11.528300  -5.795630  10.010600  38.424100  44.116300  38.344900  -5.959760  -5.684290 106.604000   8.888160 -36.379600  45.821700 -40.446800  44.404400  83.646100  35.177800  -0.002948  -0.001582  12.588900  -0.005166  -0.003826  31.102900   7.623650  12.401300  26.126500   0.003937  -0.000253  18.288500   0.001344  -0.000538  27.913400   2.553080   4.806430  32.129800   0.002761  -0.001914  21.398500  -0.001398   0.003795  27.435500   1.888170   3.631760  29.180600   0.001540   0.000419  19.434300   0.000000  -0.000303  27.501000   1.628320   3.124400  41.318100   0.008649   0.001307  27.517900  -0.000108   0.000072   1.752840  14.088900   2.179920   0.591196   2.221010   9.944620  -6.596070  -4.962470   2.344260  -0.000000   0.000000   0.000000   1.925090  14.087500 -12.031900   0.162242   4.235780 -11.231900  -8.183830  -1.793650  -0.549810  -0.000000   0.000000   0.000000
 -0.135043  89.939000   0.079457   0.093059 -12.888300   3.728700  -2.823530  12.469700   3.584520  -6.705670  24.712000   8.105710  -0.996538  -7.002020  -0.123794  -1.704300 -14.183600 -11.987600  -7.167550  -9.395640   1.375770 -60.420800  28.821900  -4.361690  -6.300750 -16.068300 -17.641500  17.719500   2.672920   8.478670  39.024100  30.212500 -70.870300 -24.452100  -0.000539  -0.000174  -7.226070  -0.004098   0.003514 -36.201300  11.231600 -14.901700 -30.824800  -0.002874   0.005518 -21.577400  -0.004593   0.002375 -32.370900   0.643763  -1.015480 -48.564700  -0.007782   0.004739 -32.344200  -0.009866   0.006829 -28.731800   0.578105  -1.054250 -39.992800  -0.002352   0.001600 -26.635300  -0.002357   0.002984 -35.797800   0.048979  -0.068314 -53.696800  -0.003067   0.000590 -35.762100  -0.002046   0.001855  11.528900  -5.787360   9.983930  38.468100  44.102300  38.304600  -5.963460  -5.582490 106.559000   8.995150 -36.527900  45.955300 -40.380100  44.255900  83.455100  35.149500  -0.002938  -0.001584  12.574700  -0.005193  -0.003822  31.083200   7.555650  12.304100  26.099400   0.004005  -0.000248  18.269500   0.001389  -0.000573  27.940100   2.594950   4.878940  32.341300   0.002803  -0.001918  21.539400  -0.001460   0.003666  27.428500   1.924640   3.701810  29.128600   0.001514   0.000394  19.399700   0.000000  -0.000277  27.425900   1.638570   3.153960  41.206400   0.008862   0.001382  27.443600  -0.000108   0.000086   1.742850  14.099200   2.179970   0.580818   2.206890   9.950730  -6.566120  -4.969070   2.367700   0.000000   0.000000   0.000000   1.908450  14.085100 -12.014000   0.160260   4.255590 -11.251300  -8.160460  -1.797920  -0.519343  -0.000000   0.000000  -0.000000
 -0.095469  89.939600   0.082712   0.076526 -12.891700   3.705820  -2.839570  12.453700   3.596310  -6.739720  24.677900   8.132080  -1.022710  -7.000450  -0.124684  -1.751330 -14.178100 -11.972000  -7.151270  -9.287310   1.375200 -60.403000  28.776400  -4.397070  -6.305810 -16.067700 -17.648100  17.742000   2.642180   8.488070  39.013200  30.223700 -70.852500 -24.485800  -0.000585  -0.000212  -7.242900  -0.004101   0.003563 -36.248600  11.232600 -14.881700 -30.861800  -0.003086   0.005554 -21.603300  -0.004681   0.002440 -32.374900   0.632366  -0.997304 -48.570600  -0.007857   0.004813 -32.348000  -0.009974   0.006870 -28.732300   0.567798  -1.035440 -39.991400  -0.002346   0.001626 -26.634400  -0.002418   0.002971 -35.791700   0.050736  -0.070359 -53.687700  -0.003037   0.000675 -35.756000  -0.002079   0.001888  11.541900  -5.770180   9.962590  38.498500  44.080600  38.283700  -5.958730  -5.425660 106.482000   9.114360 -36.663400  46.086400 -40.430500  44.167600  83.229000  35.145500  -0.002927  -0.001587  12.572700  -0.005219  -0.003819  31.087600   7.514880  12.238200  26.095500   0.004074  -0.000242  18.266800   0.001434  -0.000606  27.975100   2.662320   4.997550  32.613200   0.002844  -0.001921  21.720400  -0.001522   0.003533  27.413200   2.036680   3.916980  29.121200   0.001489   0.000370  19.394700  -0.000000  -0.000257  27.347400   1.649190   3.184780  41.089800   0.009072   0.001455  27.365900  -0.000110   0.000094   1.734660  14.112700   2.179940   0.570257   2.193250   9.953470  -6.537800  -4.976030   2.392500  -0.000000   0.000000   0.000000   1.891430  14.082400 -12.002200   0.159645   4.275770 -11.264400  -8.138300  -1.800220  -0.490770   0.000000   0.000000   0.000000
